<?xml version="1.0" encoding="utf-8"?>
<svg width="2500px" height="2500px" viewbox="0 0 2500 2500" version="1.1" xmlns:xlink="http://www.w3.org/1999/xlink" xmlns="http://www.w3.org/2000/svg">
  <defs>
    <path d="M0 0L2500 0L2500 2500L0 2500L0 0Z" id="path_1" />
    <path d="M0 0L1200 0L1200 1200L0 1200L0 0L0 0Z" id="path_2" />
    <clipPath id="mask_1">
      <use xlink:href="#path_1" />
    </clipPath>
    <clipPath id="mask_2">
      <use xlink:href="#path_2" />
    </clipPath>
  </defs>
  <g id="WCSTC_Featured_Image">
    <g id="Mask-group">
      <path d="M0 0L2500 0L2500 2500L0 2500L0 0Z" id="artboard_1" fill="none" fill-rule="evenodd" stroke="none" />
      <g clip-path="url(#mask_1)">
        <g id="Artboard">
          <path d="M0 0L2500 0L2500 2500L0 2500L0 0Z" id="artboard_1" fill="#FFFFFF" fill-rule="evenodd" stroke="none" />
          <path d="M0 0L2500 0L2500 2500L0 2500L0 0L0 0Z" id="Background" fill="#FFFFFF" fill-rule="evenodd" stroke="none" />
          <path d="M0 0L2500 0L2500 750L0 750L0 0L0 0Z" id="Title-Background" fill="#0033FF" fill-rule="evenodd" stroke="none" />
          <g id="WCSTC" transform="translate(572.4 250.56)">
            <g id="WCSTC#1">
              <path d="M549.1 248.88C523.94 248.88 501.273 243.61 481.1 233.07C460.927 222.53 445.117 207.797 433.67 188.87C422.223 169.943 416.5 148.467 416.5 124.44C416.5 100.413 422.223 78.9367 433.67 60.01C445.117 41.0833 460.927 26.35 481.1 15.81C501.273 5.27 523.94 0 549.1 0C572.22 0 592.847 4.08 610.98 12.24C629.113 20.4 644.073 32.1867 655.86 47.6L605.2 92.82C590.467 74.2333 573.127 64.94 553.18 64.94C536.407 64.94 522.92 70.3233 512.72 81.09C502.52 91.8567 497.42 106.307 497.42 124.44C497.42 142.573 502.52 157.023 512.72 167.79C522.92 178.557 536.407 183.94 553.18 183.94C573.127 183.94 590.467 174.647 605.2 156.06L655.86 201.28C644.073 216.693 629.113 228.48 610.98 236.64C592.847 244.8 572.22 248.88 549.1 248.88L549.1 248.88ZM710.09 242.25C728.79 246.67 748 248.88 767.72 248.88C791.52 248.88 811.75 245.31 828.41 238.17C845.07 231.03 857.593 221.397 865.98 209.27C874.367 197.143 878.56 183.6 878.56 168.64C878.56 151.413 873.97 137.813 864.79 127.84C855.61 117.867 844.787 110.67 832.32 106.25C819.853 101.83 804.553 97.92 786.42 94.52C772.367 91.8 762.28 89.25 756.16 86.87C750.04 84.49 746.98 80.92 746.98 76.16C746.98 66.1866 757.293 61.2 777.92 61.2C798.773 61.2 820.873 67.0933 844.22 78.88L868.36 20.74C856.347 13.94 842.463 8.78333 826.71 5.27C810.957 1.75667 794.92 0 778.6 0C754.8 0 734.57 3.51334 717.91 10.54C701.25 17.5667 688.727 27.2 680.34 39.44C671.953 51.68 667.76 65.28 667.76 80.24C667.76 97.4667 672.293 111.123 681.36 121.21C690.427 131.297 701.08 138.55 713.32 142.97C725.56 147.39 740.86 151.527 759.22 155.38C773.5 158.327 783.757 161.047 789.99 163.54C796.223 166.033 799.34 169.773 799.34 174.76C799.34 179.067 796.96 182.297 792.2 184.45C787.44 186.603 779.507 187.68 768.4 187.68C755.48 187.68 741.993 185.697 727.94 181.73C713.887 177.763 701.193 172.493 689.86 165.92L664.02 224.4C676.033 231.88 691.39 237.83 710.09 242.25L710.09 242.25ZM1179.8 233.07C1199.97 243.61 1222.64 248.88 1247.8 248.88C1270.92 248.88 1291.55 244.8 1309.68 236.64C1327.81 228.48 1342.77 216.693 1354.56 201.28L1303.9 156.06C1289.17 174.647 1271.83 183.94 1251.88 183.94C1235.11 183.94 1221.62 178.557 1211.42 167.79C1201.22 157.023 1196.12 142.573 1196.12 124.44C1196.12 106.307 1201.22 91.8567 1211.42 81.09C1221.62 70.3233 1235.11 64.94 1251.88 64.94C1271.83 64.94 1289.17 74.2333 1303.9 92.82L1354.56 47.6C1342.77 32.1867 1327.81 20.4 1309.68 12.24C1291.55 4.08 1270.92 0 1247.8 0C1222.64 0 1199.97 5.27 1179.8 15.81C1159.63 26.35 1143.82 41.0833 1132.37 60.01C1120.92 78.9367 1115.2 100.413 1115.2 124.44C1115.2 148.467 1120.92 169.943 1132.37 188.87C1143.82 207.797 1159.63 222.53 1179.8 233.07L1179.8 233.07ZM403.24 5.44L327.08 243.44L241.06 243.44L202.64 116.28L162.18 243.44L76.16 243.44L0 5.44L82.62 5.44L124.1 140.76L167.96 5.44L241.74 5.44L283.22 142.46L327.08 5.44L403.24 5.44L403.24 5.44ZM954.04 67.66L884.34 67.66L884.34 5.44L1103.98 5.44L1103.98 67.66L1034.28 67.66L1034.28 243.44L954.04 243.44L954.04 67.66L954.04 67.66Z" id="Shape" fill="#FFFFFF" fill-rule="evenodd" stroke="none" />
            </g>
            <g id="calculator" transform="translate(77.599976 749.44)">
              <path d="M0 0L1200 0L1200 1200L0 1200L0 0L0 0Z" id="Background#1" fill="none" fill-rule="evenodd" stroke="none" />
              <g id="Mask-group">
                <path d="M0 0L1200 0L1200 1200L0 1200L0 0L0 0Z" id="path_1" fill="none" fill-rule="evenodd" stroke="none" />
                <g clip-path="url(#mask_2)">
                  <g id="Group" transform="translate(150 50)">
                    <path d="M485.5 814.5C483.041 812.238 480.361 810.228 477.5 808.5C474.947 806.521 472.072 804.999 469 804C466.023 802.477 462.812 801.463 459.5 801C449.921 798.975 439.947 800.025 431 804C418.439 808.546 408.546 818.438 404 831C401.201 836.934 399.831 843.441 400 850C399.92 856.5 401.109 862.954 403.5 869C406.399 874.974 410.1 880.526 414.5 885.5C423.936 894.859 436.71 900.077 450 900C456.559 900.169 463.066 898.799 469 896C475.059 893.468 480.64 889.917 485.5 885.5C494.859 876.064 500.077 863.29 500 850C499.921 843.466 498.562 837.011 496 831C493.62 824.863 490.052 819.255 485.5 814.5L485.5 814.5L485.5 814.5ZM277.5 608.5C274.948 606.521 272.072 604.999 269 604C266.088 602.129 262.874 600.775 259.5 600C253.086 598.507 246.414 598.507 240 600L231 603L222 607.5L214.5 613.5C205.127 623.333 199.929 636.416 200 650C199.923 663.29 205.141 676.064 214.5 685.5C219.36 689.917 224.941 693.468 231 696C246.382 702.32 263.899 700.578 277.736 691.354C291.572 682.129 299.917 666.629 300 650C299.816 636.762 294.637 624.082 285.5 614.5L277.5 608.5L277.5 608.5ZM285.5 814.5C280.745 809.948 275.138 806.38 269 804C259.949 799.803 249.849 798.41 240 800L231 803C227.814 804.094 224.787 805.608 222 807.5C219.381 809.346 216.876 811.35 214.5 813.5C209.948 818.255 206.38 823.862 204 830C198.651 842.102 198.651 855.898 204 868C206.532 874.059 210.083 879.64 214.5 884.5C223.77 894.227 236.565 899.813 250 900C256.559 900.169 263.066 898.799 269 896C275.059 893.468 280.64 889.917 285.5 885.5C289.917 880.64 293.468 875.059 296 869C301.349 856.898 301.349 843.102 296 831C293.62 824.863 290.052 819.255 285.5 814.5L285.5 814.5L285.5 814.5ZM431 604C424.862 606.38 419.255 609.948 414.5 614.5C405.363 624.082 400.184 636.762 400 650C400.083 666.629 408.428 682.129 422.264 691.354C436.101 700.578 453.618 702.32 469 696C475.059 693.468 480.64 689.917 485.5 685.5C494.859 676.064 500.077 663.29 500 650C499.816 636.762 494.637 624.082 485.5 614.5C471.122 600.313 449.62 596.17 431 604L431 604L431 604ZM685.5 814.5C680.64 810.083 675.059 806.532 669 804C650.38 796.17 628.878 800.313 614.5 814.5C609.948 819.255 606.38 824.863 604 831C598.651 843.102 598.651 856.898 604 869C606.532 875.059 610.083 880.64 614.5 885.5C623.936 894.859 636.71 900.077 650 900C656.559 900.169 663.066 898.799 669 896C675.059 893.468 680.64 889.917 685.5 885.5C699.687 871.122 703.83 849.62 696 831C693.62 824.862 690.052 819.255 685.5 814.5L685.5 814.5L685.5 814.5ZM650 200L250 200C222.386 200 200 222.386 200 250L200 450C200 477.614 222.386 500 250 500L650 500C677.614 500 700 477.614 700 450L700 250C700 222.386 677.614 200 650 200L650 200L650 200ZM600 400L300 400L300 300L600 300L600 400L600 400ZM750 0L150 0C67.1573 0 0 67.1573 0 150L0 950C0 1032.84 67.1573 1100 150 1100L750 1100C832.843 1100 900 1032.84 900 950L900 150C900 67.1573 832.843 0 750 0L750 0L750 0ZM800 950C800 977.614 777.614 1000 750 1000L150 1000C122.386 1000 100 977.614 100 950L100 150C100 122.386 122.386 100 150 100L750 100C777.614 100 800 122.386 800 150L800 950L800 950ZM677.5 608.5C674.947 606.521 672.072 604.999 669 604C666.023 602.478 662.812 601.464 659.5 601C653.086 599.507 646.414 599.507 640 601L631 604L622 608.5L614.5 614.5C605.363 624.082 600.184 636.762 600 650C600.083 666.629 608.428 682.129 622.264 691.354C636.101 700.578 653.618 702.32 669 696C675.059 693.468 680.64 689.917 685.5 685.5C694.859 676.064 700.077 663.29 700 650C699.816 636.762 694.637 624.082 685.5 614.5L677.5 608.5L677.5 608.5Z" id="Shape" fill="#0033FF" fill-rule="evenodd" stroke="none" />
                  </g>
                </g>
              </g>
            </g>
          </g>
        </g>
      </g>
    </g>
  </g>
</svg>